<svg width="36" height="36" viewBox="0 0 36 36" fill="none" xmlns="http://www.w3.org/2000/svg">
<path d="M5.54785 18.0233L20.036 1.13455C20.2599 0.875561 20.0579 0.492065 19.6921 0.492065H15.4723C15.2048 0.492065 14.9483 0.606617 14.7845 0.795874L0.847653 17.0422C0.606285 17.3228 0.475098 17.6691 0.475098 18.0258C0.475098 18.3825 0.606285 18.7289 0.847653 19.0094L14.7845 35.2508C14.9483 35.445 15.2048 35.5546 15.4723 35.5546H19.6921C20.0579 35.5546 20.2599 35.1711 20.036 34.9121L5.54785 18.0233ZM22.1432 18.0233L36.6314 1.13455C36.8552 0.875561 36.6532 0.492065 36.2875 0.492065H32.0677C31.8002 0.492065 31.5436 0.606617 31.3798 0.795874L17.443 17.0422C17.2016 17.3228 17.0705 17.6691 17.0705 18.0258C17.0705 18.3825 17.2016 18.7289 17.443 19.0094L31.3798 35.2508C31.5436 35.445 31.8002 35.5546 32.0677 35.5546H36.2875C36.6532 35.5546 36.8552 35.1711 36.6314 34.9121L22.1432 18.0233Z" fill="white"/>
</svg>
