<svg width="257" height="327" viewBox="0 0 257 327" fill="none" xmlns="http://www.w3.org/2000/svg">
    <path d="M0.0471191 201.192H254.376V234.729H0.0471191V201.192Z" fill="#B2BB1D"/>
    <path d="M19.4506 284.718L10.8479 269.569L6.52256 274.779V284.718H0.0705566V251.501H4.81189C5.78522 251.501 6.52256 252.255 6.52256 253.207V265.933L18.2746 251.501H26.2479L15.1732 264.702L27.0079 284.718H19.4506Z" fill="#006C68"/>
    <path d="M44.4986 261.327L40.2213 273.471H48.5146L44.4986 261.327ZM52.2106 284.718L50.296 278.849H38.5226L36.4546 284.718H29.668L41.8133 251.519H45.6626C46.4466 251.519 47.0893 251.977 47.3146 252.685L59.0546 284.718H52.2106Z" fill="#006C68"/>
    <path d="M73.5507 285.033C68.4774 285.033 64.6974 283.929 61.384 280.691L65.6027 276.449C67.7174 278.564 70.544 279.247 73.6107 279.247C77.448 279.247 79.492 277.768 79.492 275.076C79.492 273.984 79.1707 272.98 78.4934 272.361C77.864 271.677 77.104 271.368 75.5467 271.124L71.5307 270.585C68.6667 270.193 66.6227 269.267 65.0787 267.917C63.4854 266.253 62.7374 264.12 62.7374 261.328C62.7374 255.397 67.1107 251.239 74.3107 251.239C78.8614 251.239 82.2134 252.375 84.9694 255.091L80.9414 259.248C78.8147 257.18 76.296 256.879 74.0854 256.879C70.6627 256.879 68.928 258.809 68.928 261.084C68.928 261.983 69.308 262.825 69.9507 263.504C70.6387 264.079 71.6854 264.625 72.968 264.763L76.912 265.339C79.9787 265.801 81.844 266.611 83.2827 267.917C85.0414 269.645 85.86 271.993 85.86 274.951C85.86 281.397 80.5014 285.033 73.5507 285.033Z" fill="#006C68"/>
    <path d="M91.2434 284.718V251.561H111.395C112.382 251.561 113.214 252.353 113.214 253.29V257.271H97.7074V265.13H110.874V270.929H97.7074V278.925H113.214V282.995C113.214 283.929 112.382 284.718 111.395 284.718H91.2434Z" fill="#006C68"/>
    <path d="M132.629 257.272V284.678H126.084V257.272H117.432V253.29C117.432 252.316 118.217 251.52 119.18 251.52H139.51C140.485 251.52 141.268 252.316 141.268 253.29V257.272H132.629Z" fill="#006C68"/>
    <path d="M156.086 285.033C150.977 285.033 147.21 283.929 143.989 280.691L148.185 276.449C150.322 278.564 153.057 279.247 156.146 279.247C159.911 279.247 162.038 277.768 162.038 275.076C162.038 273.984 161.741 272.98 161.005 272.361C160.339 271.677 159.651 271.368 158.081 271.124L154.101 270.585C151.25 270.193 149.134 269.267 147.637 267.917C145.998 266.253 145.273 264.12 145.273 261.328C145.273 255.397 149.669 251.239 156.846 251.239C161.337 251.239 164.675 252.375 167.553 255.091L163.453 259.248C161.337 257.18 158.794 256.879 156.61 256.879C153.186 256.879 151.51 258.809 151.51 261.084C151.51 261.983 151.795 262.825 152.461 263.504C153.114 264.079 154.243 264.625 155.587 264.763L159.471 265.339C162.586 265.801 164.45 266.611 165.818 267.917C167.575 269.645 168.383 271.993 168.383 274.951C168.383 281.397 163.013 285.033 156.086 285.033Z" fill="#006C68"/>
    <path d="M185.601 261.327L181.299 273.471H189.605L185.601 261.327ZM193.277 284.718L191.34 278.885H179.493L177.485 284.718H170.759L182.796 251.519H186.753C187.515 251.519 188.132 252.013 188.429 252.685L200.039 284.718H193.277Z" fill="#006C68"/>
    <path d="M217.102 257.271H211.076V266.063H217.102C219.918 266.063 221.818 264.263 221.818 261.649C221.818 259.125 219.918 257.271 217.102 257.271ZM222.139 284.718L215.699 271.481H211.076V284.718H204.53V251.561H217.576C224.326 251.561 228.343 256.154 228.343 261.649C228.343 266.343 225.466 269.266 222.295 270.377L229.732 284.718H222.139Z" fill="#006C68"/>
    <path d="M247.639 257.271V284.653H241.186V257.271H232.549V253.29C232.549 252.315 233.31 251.519 234.331 251.519H254.495C255.505 251.519 256.289 252.315 256.289 253.29V257.271H247.639Z" fill="#006C68"/>
    <path d="M10.4674 326.919C4.3594 326.919 0.0700684 322.76 0.0700684 316.807V296.304H2.38607V316.535C2.38607 321.589 5.6194 324.845 10.4674 324.845C15.3861 324.845 18.6181 321.589 18.6181 316.535V296.304H20.9114V316.807C20.9114 322.76 16.5501 326.919 10.4674 326.919Z" fill="#006C68"/>
    <path d="M52.7918 326.699L35.2411 300.327V326.699H33.0198V296.304H35.2411L52.7918 322.635V296.304H55.0731V326.699H52.7918Z" fill="#006C68"/>
    <path d="M67.6099 296.304H69.8912V326.698H67.6099V296.304Z" fill="#006C68"/>
    <path d="M90.127 326.699H88.167L78.1497 296.304H80.6443L89.1763 322.635L97.6483 296.304H100.096L90.127 326.699Z" fill="#006C68"/>
    <path d="M108.354 326.699V296.304H126.736V298.353H110.6V310.313H124.371V312.351H110.6V324.615H126.736V326.699H108.354Z" fill="#006C68"/>
    <path d="M148.219 298.354H139.295V310.688H148.219C152.081 310.688 154.934 308.667 154.934 304.522C154.934 300.326 152.081 298.354 148.219 298.354ZM154.885 326.699L147.637 312.678H139.295V326.699H136.954V296.304H148.551C153.507 296.304 157.238 299.139 157.238 304.496C157.238 308.964 154.493 311.935 150.251 312.678L157.618 326.699H154.885Z" fill="#006C68"/>
    <path d="M175.751 326.919C171.201 326.919 168.383 325.695 165.567 322.925L167.219 321.299C169.917 324.049 172.198 324.845 175.846 324.845C180.622 324.845 183.606 322.557 183.606 318.631C183.606 316.807 183.106 315.333 181.99 314.377C180.873 313.445 180.087 313.117 177.593 312.743L174.075 312.231C171.781 311.912 169.917 311.115 168.61 309.933C167.042 308.567 166.233 306.689 166.233 304.395C166.233 299.263 169.834 296.012 175.717 296.012C179.387 296.012 181.823 297.047 184.39 299.263L182.951 300.861C181.11 299.139 179.162 297.991 175.585 297.991C171.153 297.991 168.526 300.499 168.526 304.36C168.526 306.084 169.037 307.425 170.13 308.223C171.153 309.189 172.934 309.855 174.574 310.159L177.89 310.688C180.753 311.115 182.011 311.561 183.309 312.677C184.925 314.045 185.994 316.081 185.994 318.488C185.994 323.633 182.011 326.919 175.751 326.919Z" fill="#006C68"/>
    <path d="M196.343 296.304H198.589V326.698H196.343V296.304Z" fill="#006C68"/>
    <path d="M219.051 298.354V326.699H216.756V298.354H207.713V296.304H228.129V298.354H219.051Z" fill="#006C68"/>
    <path d="M244.169 314.162V326.698H241.9V314.162L232.975 296.303H235.447L243.124 311.65L250.704 296.303H253.129L244.169 314.162Z" fill="#006C68"/>
    <path d="M221.332 -5.08642e-06V109.697C221.332 129.339 209.496 141.049 191.519 141.049C173.457 141.049 161.956 129.339 161.956 109.697V10.6107C161.956 4.76399 157.225 -5.08642e-06 151.344 -5.08642e-06H135.493H133.865H128.567V0.0346629H104.064H102.567H97.0066C96.1746 0.0346629 95.296 0.154659 94.356 0.355993C92.052 0.926659 89.7933 2.25733 88.2147 4.27733L33.508 71.5787V-5.08642e-06H0V167.815H33.508V116.601L55.656 90.3347L99.5733 167.815H138.476L77.6853 65.1693L126.38 7.06399C126.772 6.68932 127.305 6.47466 127.817 6.70799C128.245 6.87866 128.567 7.30666 128.567 7.812V35.088V58.2813V110.892C128.567 147.003 156.369 170.672 191.519 170.672C226.595 170.672 254.436 147.003 254.436 110.892V-5.08642e-06H221.332Z" fill="#006C68"/>
    </svg>
    