<svg width="162" height="45" viewBox="0 0 162 45" fill="none" xmlns="http://www.w3.org/2000/svg">
    <path d="M0.00537109 25.7705H28.7898V29.5662H0.00537109V25.7705Z" fill="#B2BB1D"/>
    <path d="M2.20144 35.2239L1.22781 33.5093L0.73828 34.099V35.2239H0.00805664V31.4644H0.544671C0.65483 31.4644 0.73828 31.5498 0.73828 31.6576V33.0978L2.06835 31.4644H2.97075L1.71734 32.9585L3.05677 35.2239H2.20144Z" fill="#006C68"/>
    <path d="M5.03617 32.5766L4.55207 33.951H5.49069L5.03617 32.5766ZM5.909 35.2239L5.6923 34.5596H4.35982L4.12577 35.2239H3.35767L4.73225 31.4665H5.16791C5.25664 31.4665 5.32938 31.5183 5.35488 31.5984L6.68359 35.2239H5.909Z" fill="#006C68"/>
    <path d="M8.32426 35.2595C7.75007 35.2595 7.32226 35.1346 6.94727 34.768L7.42473 34.288C7.66406 34.5273 7.98397 34.6046 8.33105 34.6046C8.76535 34.6046 8.99669 34.4372 8.99669 34.1326C8.99669 34.009 8.96032 33.8954 8.88366 33.8253C8.81244 33.7479 8.72642 33.7129 8.55017 33.6853L8.09564 33.6243C7.7715 33.58 7.54017 33.4751 7.36542 33.3224C7.18509 33.134 7.10043 32.8926 7.10043 32.5766C7.10043 31.9054 7.5954 31.4347 8.41028 31.4347C8.92531 31.4347 9.30469 31.5633 9.6166 31.8707L9.16072 32.3412C8.92003 32.1071 8.63497 32.073 8.38478 32.073C7.99741 32.073 7.80108 32.2915 7.80108 32.549C7.80108 32.6507 7.84409 32.7461 7.91682 32.8229C7.99469 32.8879 8.11315 32.9498 8.25832 32.9653L8.70469 33.0305C9.05177 33.0829 9.26288 33.1745 9.42571 33.3224C9.62475 33.5179 9.71741 33.7837 9.71741 34.1184C9.71741 34.848 9.11092 35.2595 8.32426 35.2595Z" fill="#006C68"/>
    <path d="M10.3267 35.2239V31.4712H12.6074C12.7191 31.4712 12.8133 31.5608 12.8133 31.6669V32.1175H11.0582V33.0069H12.5484V33.6632H11.0582V34.5682H12.8133V35.0289C12.8133 35.1345 12.7191 35.2239 12.6074 35.2239H10.3267Z" fill="#006C68"/>
    <path d="M15.0108 32.1175V35.2194H14.27V32.1175H13.2908V31.6669C13.2908 31.5566 13.3797 31.4665 13.4886 31.4665H15.7896C15.8999 31.4665 15.9885 31.5566 15.9885 31.6669V32.1175H15.0108Z" fill="#006C68"/>
    <path d="M17.6655 35.2595C17.0873 35.2595 16.661 35.1346 16.2964 34.768L16.7713 34.288C17.0132 34.5273 17.3227 34.6046 17.6723 34.6046C18.0985 34.6046 18.3392 34.4372 18.3392 34.1326C18.3392 34.009 18.3055 33.8954 18.2222 33.8253C18.1469 33.7479 18.0691 33.7129 17.8913 33.6853L17.4408 33.6243C17.1182 33.58 16.8787 33.4751 16.7093 33.3224C16.5238 33.134 16.4417 32.8926 16.4417 32.5766C16.4417 31.9054 16.9392 31.4347 17.7516 31.4347C18.2598 31.4347 18.6377 31.5633 18.9633 31.8707L18.4993 32.3412C18.2598 32.1071 17.972 32.073 17.7248 32.073C17.3373 32.073 17.1476 32.2915 17.1476 32.549C17.1476 32.6507 17.1799 32.7461 17.2552 32.8229C17.3292 32.8879 17.457 32.9498 17.6091 32.9653L18.0487 33.0305C18.4012 33.0829 18.6122 33.1745 18.767 33.3224C18.9659 33.5179 19.0573 33.7837 19.0573 34.1184C19.0573 34.848 18.4495 35.2595 17.6655 35.2595Z" fill="#006C68"/>
    <path d="M21.006 32.5766L20.5191 33.951H21.4592L21.006 32.5766ZM21.8748 35.2239L21.6555 34.5637H20.3147L20.0875 35.2239H19.3262L20.6885 31.4665H21.1364C21.2226 31.4665 21.2924 31.5224 21.3261 31.5984L22.64 35.2239H21.8748Z" fill="#006C68"/>
    <path d="M24.5711 32.1175H23.8891V33.1126H24.5711C24.8898 33.1126 25.1048 32.9089 25.1048 32.6129C25.1048 32.3273 24.8898 32.1175 24.5711 32.1175ZM25.1412 35.2239L24.4123 33.7257H23.8891V35.2239H23.1482V31.4712H24.6248C25.3887 31.4712 25.8433 31.9911 25.8433 32.6129C25.8433 33.1443 25.5177 33.4751 25.1588 33.6008L26.0006 35.2239H25.1412Z" fill="#006C68"/>
    <path d="M28.0273 32.1175V35.2164H27.2969V32.1175H26.3193V31.6669C26.3193 31.5566 26.4055 31.4665 26.5211 31.4665H28.8032C28.9174 31.4665 29.0062 31.5566 29.0062 31.6669V32.1175H28.0273Z" fill="#006C68"/>
    <path d="M1.1848 40C0.493514 40 0.00805664 39.5293 0.00805664 38.8555V36.5351H0.270177V38.8248C0.270177 39.3968 0.636118 39.7653 1.1848 39.7653C1.74149 39.7653 2.10728 39.3968 2.10728 38.8248V36.5351H2.36683V38.8555C2.36683 39.5293 1.87323 40 1.1848 40Z" fill="#006C68"/>
    <path d="M5.97481 39.9751L3.98847 36.9904V39.9751H3.73706V36.5351H3.98847L5.97481 39.5151V36.5351H6.23301V39.9751H5.97481Z" fill="#006C68"/>
    <path d="M7.65186 36.5351H7.91005V39.9751H7.65186V36.5351Z" fill="#006C68"/>
    <path d="M10.2003 39.9751H9.97847L8.84473 36.5351H9.12707L10.0927 39.5151L11.0515 36.5351H11.3286L10.2003 39.9751Z" fill="#006C68"/>
    <path d="M12.2632 39.9751V36.5351H14.3437V36.767H12.5175V38.1206H14.076V38.3512H12.5175V39.7392H14.3437V39.9751H12.2632Z" fill="#006C68"/>
    <path d="M16.7752 36.767H15.7652V38.163H16.7752C17.2122 38.163 17.5352 37.9343 17.5352 37.4651C17.5352 36.9902 17.2122 36.767 16.7752 36.767ZM17.5296 39.9751L16.7093 38.3882H15.7652V39.9751H15.5002V36.5351H16.8128C17.3737 36.5351 17.7959 36.8559 17.7959 37.4622C17.7959 37.9679 17.4852 38.3041 17.0052 38.3882L17.839 39.9751H17.5296Z" fill="#006C68"/>
    <path d="M19.8911 40C19.3761 40 19.0572 39.8615 18.7385 39.548L18.9255 39.3639C19.2308 39.6753 19.489 39.7653 19.9018 39.7653C20.4424 39.7653 20.7801 39.5064 20.7801 39.062C20.7801 38.8555 20.7235 38.6888 20.5972 38.5806C20.4708 38.4751 20.3819 38.438 20.0995 38.3956L19.7014 38.3376C19.4417 38.3016 19.2308 38.2113 19.0829 38.0776C18.9054 37.923 18.8138 37.7105 18.8138 37.4508C18.8138 36.87 19.2214 36.502 19.8872 36.502C20.3026 36.502 20.5783 36.6192 20.8688 36.87L20.706 37.0509C20.4976 36.8559 20.2771 36.726 19.8723 36.726C19.3707 36.726 19.0734 37.0098 19.0734 37.4469C19.0734 37.642 19.1312 37.7938 19.2549 37.884C19.3707 37.9934 19.5723 38.0687 19.7579 38.1031L20.1332 38.163C20.4572 38.2113 20.5996 38.2619 20.7465 38.3882C20.9293 38.543 21.0504 38.7735 21.0504 39.0458C21.0504 39.6282 20.5996 40 19.8911 40Z" fill="#006C68"/>
    <path d="M22.2217 36.5351H22.4758V39.9751H22.2217V36.5351Z" fill="#006C68"/>
    <path d="M24.7917 36.767V39.9751H24.532V36.767H23.5085V36.5351H25.8192V36.767H24.7917Z" fill="#006C68"/>
    <path d="M27.6347 38.5562V39.975H27.3778V38.5562L26.3677 36.535H26.6475L27.5164 38.2719L28.3742 36.535H28.6487L27.6347 38.5562Z" fill="#006C68"/>
    <path d="M25.0499 3.00011V15.4154C25.0499 17.6384 23.7103 18.9638 21.6757 18.9638C19.6315 18.9638 18.3298 17.6384 18.3298 15.4154V4.201C18.3298 3.53929 17.7944 3.00011 17.1288 3.00011H15.3348H15.1506H14.5509V3.00404H11.7777H11.6083H10.979C10.8848 3.00404 10.7854 3.01762 10.679 3.0404C10.4182 3.10499 10.1626 3.25559 9.98395 3.48421L3.79236 11.1012V3.00011H0V21.993H3.79236V16.1968L6.29903 13.224L11.2695 21.993H15.6724L8.79226 10.3758L14.3034 3.7996C14.3478 3.7572 14.4081 3.7329 14.4661 3.75931C14.5145 3.77862 14.5509 3.82707 14.5509 3.88426V6.9713V9.59627V15.5506C14.5509 19.6376 17.6975 22.3164 21.6757 22.3164C25.6455 22.3164 28.7965 19.6376 28.7965 15.5506V3.00011H25.0499Z" fill="#006C68"/>
    <path d="M48.2578 18.2344C48.2578 19.0156 48.1016 19.7135 47.7891 20.3281C47.4766 20.9375 47.0469 21.4531 46.5 21.875C45.9583 22.2917 45.3203 22.6094 44.5859 22.8281C43.8516 23.0469 43.0599 23.1562 42.2109 23.1562C41.5859 23.1562 40.9974 23.1172 40.4453 23.0391C39.8932 22.9661 39.3672 22.8411 38.8672 22.6641C38.3724 22.487 37.901 22.2578 37.4531 21.9766C37.0052 21.6901 36.5729 21.3385 36.1562 20.9219L38.3672 18.7422C38.8932 19.2526 39.4844 19.6146 40.1406 19.8281C40.7969 20.0417 41.487 20.1484 42.2109 20.1484C43.112 20.1484 43.7891 19.9844 44.2422 19.6562C44.7005 19.3229 44.9297 18.8594 44.9297 18.2656C44.9297 17.9844 44.8854 17.7448 44.7969 17.5469C44.7135 17.349 44.5938 17.1823 44.4375 17.0469C44.2812 16.9115 44.0911 16.8021 43.8672 16.7188C43.6484 16.6354 43.4036 16.5651 43.1328 16.5078L41.2188 16.25C40.5469 16.1458 39.9427 15.9818 39.4062 15.7578C38.8698 15.5286 38.4115 15.2318 38.0312 14.8672C37.6562 14.4974 37.3672 14.0521 37.1641 13.5312C36.9661 13.0104 36.8672 12.401 36.8672 11.7031C36.8672 10.974 36.9948 10.3073 37.25 9.70312C37.5104 9.09896 37.8828 8.58073 38.3672 8.14844C38.8568 7.71094 39.4531 7.3724 40.1562 7.13281C40.8646 6.89323 41.6667 6.77344 42.5625 6.77344C43.1146 6.77344 43.6328 6.8125 44.1172 6.89062C44.6068 6.96354 45.0703 7.07812 45.5078 7.23438C45.9453 7.39062 46.362 7.59375 46.7578 7.84375C47.1536 8.08854 47.5365 8.38281 47.9062 8.72656L45.7266 10.8438C45.4609 10.5938 45.1875 10.3958 44.9062 10.25C44.6302 10.099 44.3516 9.98438 44.0703 9.90625C43.7891 9.82812 43.513 9.77865 43.2422 9.75781C42.9714 9.73177 42.7109 9.71875 42.4609 9.71875C42.0599 9.71875 41.7135 9.76823 41.4219 9.86719C41.1302 9.96615 40.888 10.099 40.6953 10.2656C40.5026 10.4323 40.3594 10.6302 40.2656 10.8594C40.1719 11.0833 40.125 11.3229 40.125 11.5781C40.125 11.8333 40.1719 12.0573 40.2656 12.25C40.3594 12.4427 40.487 12.6068 40.6484 12.7422C40.8151 12.8776 41.0104 12.987 41.2344 13.0703C41.4583 13.1536 41.6979 13.2109 41.9531 13.2422L43.8438 13.4922C44.5312 13.5964 45.1484 13.7682 45.6953 14.0078C46.2422 14.2474 46.7031 14.5625 47.0781 14.9531C47.4583 15.3385 47.75 15.8047 47.9531 16.3516C48.1562 16.8932 48.2578 17.5208 48.2578 18.2344ZM62.5621 14.875C62.5621 15.5677 62.536 16.25 62.4839 16.9219C62.4371 17.5938 62.3381 18.2318 62.1871 18.8359C62.0412 19.4349 61.8329 19.9896 61.5621 20.5C61.2964 21.0052 60.9423 21.4453 60.4996 21.8203C60.0621 22.1901 59.5256 22.4792 58.8902 22.6875C58.2548 22.8958 57.497 23 56.6167 23H50.7261V6.9375H56.6167C57.4761 6.9375 58.2183 7.03646 58.8433 7.23438C59.4735 7.43229 60.0074 7.71094 60.4449 8.07031C60.8876 8.42448 61.247 8.84896 61.523 9.34375C61.799 9.83854 62.0126 10.3802 62.1636 10.9688C62.3199 11.5573 62.424 12.1823 62.4761 12.8438C62.5334 13.5052 62.5621 14.1823 62.5621 14.875ZM59.2339 14.875C59.2339 14.0885 59.2157 13.388 59.1792 12.7734C59.1428 12.1589 59.0308 11.6406 58.8433 11.2188C58.661 10.7917 58.372 10.4688 57.9761 10.25C57.5855 10.026 57.036 9.91406 56.3277 9.91406H54.0542V19.9922H56.3277C56.8121 19.9922 57.2183 19.9401 57.5464 19.8359C57.8798 19.7318 58.1532 19.5781 58.3667 19.375C58.5855 19.1719 58.7522 18.9245 58.8667 18.6328C58.9865 18.3359 59.0725 18 59.1246 17.625C59.1819 17.2448 59.2131 16.8255 59.2183 16.3672C59.2287 15.9036 59.2339 15.4062 59.2339 14.875Z" fill="#006C67"/>
    <path d="M83.4753 14.9688C83.4753 15.6667 83.4674 16.3151 83.4518 16.9141C83.4362 17.513 83.3763 18.0755 83.2721 18.6016C83.1732 19.1224 83.0143 19.612 82.7956 20.0703C82.582 20.5286 82.2747 20.9609 81.8737 21.3672C81.5872 21.638 81.2851 21.8854 80.9674 22.1094C80.6497 22.3281 80.3112 22.5156 79.9518 22.6719C79.5924 22.8281 79.207 22.9479 78.7956 23.0312C78.3893 23.1146 77.9544 23.1562 77.4909 23.1562C76.5794 23.1562 75.7643 22.9974 75.0456 22.6797C74.332 22.362 73.6966 21.9245 73.1393 21.3672C72.7226 20.9609 72.4049 20.5286 72.1862 20.0703C71.9674 19.612 71.8086 19.1224 71.7096 18.6016C71.6159 18.0755 71.5638 17.513 71.5534 16.9141C71.543 16.3151 71.5378 15.6667 71.5378 14.9688C71.5378 14.2812 71.543 13.638 71.5534 13.0391C71.5638 12.4401 71.6159 11.8776 71.7096 11.3516C71.8086 10.8255 71.9674 10.3333 72.1862 9.875C72.4049 9.41146 72.7226 8.97656 73.1393 8.57031C73.7018 7.97135 74.3372 7.51823 75.0456 7.21094C75.7591 6.89844 76.5742 6.74219 77.4909 6.74219C78.418 6.74219 79.2409 6.89844 79.9596 7.21094C80.6784 7.52344 81.3164 7.97656 81.8737 8.57031C82.2747 8.97656 82.582 9.41146 82.7956 9.875C83.0143 10.3333 83.1732 10.8255 83.2721 11.3516C83.3763 11.8776 83.4362 12.4401 83.4518 13.0391C83.4674 13.638 83.4753 14.2812 83.4753 14.9688ZM80.1471 14.9688C80.1471 14.2188 80.1341 13.599 80.1081 13.1094C80.082 12.6146 80.0378 12.2083 79.9753 11.8906C79.918 11.5677 79.8398 11.3099 79.7409 11.1172C79.6419 10.9245 79.5221 10.7474 79.3815 10.5859C79.168 10.3411 78.9075 10.1406 78.6003 9.98438C78.2982 9.82812 77.9284 9.75 77.4909 9.75C77.0898 9.75 76.7279 9.82812 76.4049 9.98438C76.082 10.1406 75.8138 10.3411 75.6003 10.5859C75.5013 10.6901 75.4128 10.8021 75.3346 10.9219C75.2617 11.0417 75.1966 11.1823 75.1393 11.3438C75.0872 11.5 75.043 11.6823 75.0065 11.8906C74.97 12.099 74.9414 12.349 74.9206 12.6406C74.8997 12.9271 74.8841 13.263 74.8737 13.6484C74.8685 14.0286 74.8659 14.4688 74.8659 14.9688C74.8659 15.7135 74.8763 16.3307 74.8971 16.8203C74.918 17.3047 74.9544 17.7057 75.0065 18.0234C75.0638 18.3411 75.1393 18.5964 75.2331 18.7891C75.3268 18.9818 75.4492 19.1589 75.6003 19.3203C75.8138 19.5443 76.082 19.7396 76.4049 19.9062C76.7279 20.0677 77.0898 20.1484 77.4909 20.1484C77.9232 20.1484 78.293 20.0677 78.6003 19.9062C78.9075 19.7396 79.168 19.5443 79.3815 19.3203C79.5221 19.1589 79.6419 18.9818 79.7409 18.7891C79.8398 18.5964 79.918 18.3411 79.9753 18.0234C80.0378 17.7057 80.082 17.3047 80.1081 16.8203C80.1341 16.3307 80.1471 15.7135 80.1471 14.9688ZM93.1389 23V15.6719C93.1389 15.25 93.0842 14.8958 92.9748 14.6094C92.8654 14.3229 92.7196 14.0938 92.5373 13.9219C92.3602 13.7448 92.1545 13.6198 91.9201 13.5469C91.691 13.4688 91.4566 13.4297 91.217 13.4297C90.9774 13.4297 90.7326 13.4792 90.4826 13.5781C90.2326 13.6771 90.0061 13.8281 89.8029 14.0312C89.5998 14.2292 89.4331 14.4766 89.3029 14.7734C89.1727 15.0651 89.1076 15.4062 89.1076 15.7969V23H86.0686V10.8438H89.0139V12.1172C89.4253 11.6745 89.8785 11.3307 90.3732 11.0859C90.868 10.8359 91.4279 10.7109 92.0529 10.7109C92.6936 10.7109 93.2665 10.8255 93.7717 11.0547C94.2821 11.2839 94.7144 11.6016 95.0686 12.0078C95.4279 12.4141 95.7014 12.8932 95.8889 13.4453C96.0816 13.9922 96.1779 14.5859 96.1779 15.2266V23H93.1389ZM102.388 23C101.763 23 101.227 22.901 100.779 22.7031C100.336 22.5 99.9692 22.2344 99.6775 21.9062C99.391 21.5781 99.1801 21.2057 99.0447 20.7891C98.9093 20.3724 98.8416 19.9479 98.8416 19.5156V5.39844H101.881V19.3203C101.881 19.6901 101.959 19.9688 102.115 20.1562C102.276 20.3438 102.55 20.4375 102.935 20.4375H104.084V23H102.388ZM105.396 23V10.8438H108.435V23H105.396ZM105.138 6.77344C105.138 6.53385 105.185 6.3099 105.279 6.10156C105.372 5.88802 105.497 5.70312 105.654 5.54688C105.815 5.39062 106.003 5.26823 106.216 5.17969C106.43 5.09115 106.656 5.04688 106.896 5.04688C107.135 5.04688 107.359 5.09115 107.568 5.17969C107.781 5.26823 107.966 5.39062 108.122 5.54688C108.279 5.70312 108.401 5.88802 108.49 6.10156C108.583 6.3099 108.63 6.53385 108.63 6.77344C108.63 7.01302 108.583 7.23958 108.49 7.45312C108.401 7.66667 108.279 7.85417 108.122 8.01562C107.966 8.17708 107.781 8.30469 107.568 8.39844C107.359 8.49219 107.135 8.53906 106.896 8.53906C106.656 8.53906 106.43 8.49219 106.216 8.39844C106.003 8.30469 105.815 8.17708 105.654 8.01562C105.497 7.85417 105.372 7.66667 105.279 7.45312C105.185 7.23958 105.138 7.01302 105.138 6.77344ZM118.364 23V15.6719C118.364 15.25 118.309 14.8958 118.2 14.6094C118.091 14.3229 117.945 14.0938 117.763 13.9219C117.585 13.7448 117.38 13.6198 117.145 13.5469C116.916 13.4688 116.682 13.4297 116.442 13.4297C116.203 13.4297 115.958 13.4792 115.708 13.5781C115.458 13.6771 115.231 13.8281 115.028 14.0312C114.825 14.2292 114.658 14.4766 114.528 14.7734C114.398 15.0651 114.333 15.4062 114.333 15.7969V23H111.294V10.8438H114.239V12.1172C114.651 11.6745 115.104 11.3307 115.599 11.0859C116.093 10.8359 116.653 10.7109 117.278 10.7109C117.919 10.7109 118.492 10.8255 118.997 11.0547C119.507 11.2839 119.94 11.6016 120.294 12.0078C120.653 12.4141 120.927 12.8932 121.114 13.4453C121.307 13.9922 121.403 14.5859 121.403 15.2266V23H118.364ZM126.301 17.8516C126.301 18.2422 126.364 18.6042 126.489 18.9375C126.614 19.2708 126.791 19.5599 127.02 19.8047C127.254 20.0443 127.536 20.2318 127.864 20.3672C128.197 20.5026 128.572 20.5703 128.989 20.5703C129.332 20.5703 129.635 20.5495 129.895 20.5078C130.161 20.4609 130.4 20.3906 130.614 20.2969C130.832 20.2031 131.036 20.0833 131.223 19.9375C131.416 19.7917 131.611 19.6172 131.809 19.4141L133.668 21.2422C133.345 21.5443 133.023 21.8151 132.7 22.0547C132.382 22.2891 132.038 22.4896 131.668 22.6562C131.304 22.8177 130.9 22.9401 130.457 23.0234C130.02 23.112 129.52 23.1562 128.957 23.1562C128.478 23.1562 128.004 23.1146 127.536 23.0312C127.067 22.9531 126.621 22.8177 126.2 22.625C125.778 22.4323 125.387 22.1797 125.028 21.8672C124.674 21.5547 124.364 21.1667 124.098 20.7031C123.838 20.2396 123.632 19.6953 123.481 19.0703C123.335 18.4401 123.262 17.7135 123.262 16.8906C123.262 15.9062 123.392 15.0312 123.653 14.2656C123.918 13.5 124.288 12.8542 124.762 12.3281C125.241 11.7969 125.812 11.3958 126.473 11.125C127.14 10.849 127.874 10.7109 128.676 10.7109C129.525 10.7109 130.28 10.8568 130.942 11.1484C131.603 11.4401 132.161 11.8438 132.614 12.3594C133.072 12.875 133.421 13.487 133.661 14.1953C133.9 14.9036 134.02 15.6745 134.02 16.5078V17.8516H126.301ZM130.973 15.7656C130.973 15.4479 130.924 15.138 130.825 14.8359C130.726 14.5286 130.58 14.2578 130.387 14.0234C130.194 13.7891 129.955 13.6016 129.668 13.4609C129.382 13.3151 129.051 13.2422 128.676 13.2422C128.317 13.2422 127.996 13.3073 127.715 13.4375C127.434 13.5625 127.194 13.7396 126.996 13.9688C126.799 14.1927 126.64 14.4583 126.52 14.7656C126.405 15.0729 126.332 15.4062 126.301 15.7656H130.973Z" fill="black"/>
    <path d="M41.375 34.9778C41.375 35.2434 41.3229 35.4973 41.2188 35.7395C41.1146 35.9817 40.957 36.1965 40.7461 36.384C40.5352 36.5689 40.2695 36.7174 39.9492 36.8293C39.6315 36.9387 39.2591 36.9934 38.832 36.9934C38.5326 36.9934 38.2617 36.9713 38.0195 36.927C37.7799 36.8853 37.556 36.8202 37.3477 36.7317C37.1419 36.6405 36.9453 36.526 36.7578 36.3879C36.5729 36.2499 36.3841 36.0846 36.1914 35.8918L36.9922 35.0286C37.1328 35.1692 37.2682 35.2916 37.3984 35.3958C37.5286 35.4999 37.6641 35.5872 37.8047 35.6575C37.9453 35.7252 38.0964 35.776 38.2578 35.8098C38.4193 35.8437 38.6003 35.8606 38.8008 35.8606C39.0404 35.8606 39.2409 35.8372 39.4023 35.7903C39.5664 35.7434 39.6979 35.6796 39.7969 35.5989C39.8984 35.5181 39.9701 35.4244 40.0117 35.3176C40.056 35.2109 40.0781 35.0976 40.0781 34.9778C40.0781 34.8528 40.0508 34.746 39.9961 34.6575C39.944 34.5663 39.8737 34.4895 39.7852 34.427C39.6992 34.3619 39.599 34.3085 39.4844 34.2668C39.3724 34.2252 39.2565 34.19 39.1367 34.1614L38.625 34.052C38.2995 33.9791 38.0078 33.8958 37.75 33.802C37.4948 33.7056 37.2773 33.5885 37.0977 33.4504C36.918 33.3124 36.7799 33.1484 36.6836 32.9583C36.5898 32.7655 36.543 32.5377 36.543 32.2747C36.543 32.0142 36.5911 31.7694 36.6875 31.5403C36.7839 31.3111 36.9271 31.1119 37.1172 30.9426C37.3073 30.7708 37.5443 30.6353 37.8281 30.5364C38.112 30.4374 38.4414 30.3879 38.8164 30.3879C39.043 30.3879 39.2591 30.4075 39.4648 30.4465C39.6706 30.483 39.8685 30.539 40.0586 30.6145C40.2513 30.69 40.4401 30.7838 40.625 30.8958C40.8099 31.0051 40.9961 31.134 41.1836 31.2825L40.3203 32.0989C40.1953 32.0025 40.0729 31.9179 39.9531 31.845C39.8359 31.7721 39.7161 31.7109 39.5938 31.6614C39.474 31.6119 39.3503 31.5741 39.2227 31.5481C39.0951 31.5221 38.9596 31.509 38.8164 31.509C38.6367 31.509 38.4831 31.5286 38.3555 31.5676C38.2279 31.6067 38.1237 31.6614 38.043 31.7317C37.9622 31.7994 37.9023 31.8801 37.8633 31.9739C37.8268 32.0676 37.8086 32.1679 37.8086 32.2747C37.8086 32.358 37.832 32.4322 37.8789 32.4973C37.9258 32.5598 37.9922 32.6171 38.0781 32.6692C38.1641 32.7187 38.2695 32.7655 38.3945 32.8098C38.5195 32.8515 38.6602 32.8918 38.8164 32.9309L39.4062 33.0754C39.6797 33.1379 39.9349 33.2161 40.1719 33.3098C40.4115 33.4036 40.6198 33.5247 40.7969 33.6731C40.9766 33.8189 41.1172 33.9986 41.2188 34.2122C41.3229 34.4231 41.375 34.6783 41.375 34.9778ZM43.3787 34.3723C43.3865 34.5416 43.406 34.677 43.4373 34.7786C43.4711 34.8801 43.5167 34.9309 43.574 34.9309H45.2537V36.052H43.4451C43.3045 36.052 43.1599 36.0247 43.0115 35.97C42.8657 35.9153 42.7316 35.8228 42.6092 35.6926C42.4894 35.5624 42.3891 35.3905 42.3084 35.177C42.2302 34.9609 42.1873 34.6926 42.1795 34.3723H43.3787ZM43.3787 31.2512C43.3865 31.4205 43.406 31.5559 43.4373 31.6575C43.4711 31.759 43.5167 31.8098 43.574 31.8098H45.2537V32.9309H43.4451C43.3045 32.9309 43.1599 32.9036 43.0115 32.8489C42.8657 32.7942 42.7316 32.7017 42.6092 32.5715C42.4894 32.4413 42.3891 32.2694 42.3084 32.0559C42.2302 31.8398 42.1873 31.5715 42.1795 31.2512H43.3787ZM49.2613 36.9778C48.8681 36.9778 48.5087 36.9244 48.1832 36.8176C47.8602 36.7083 47.5829 36.5494 47.3511 36.3411C47.1194 36.1327 46.9397 35.8762 46.8121 35.5715C46.6845 35.2642 46.6207 34.9127 46.6207 34.5168V30.4504H47.9175V34.3879C47.9175 34.8593 48.0269 35.2226 48.2457 35.4778C48.4644 35.733 48.8029 35.8606 49.2613 35.8606C49.717 35.8606 50.0542 35.733 50.273 35.4778C50.4944 35.2226 50.605 34.8593 50.605 34.3879V30.4504H51.9019V34.5168C51.9019 34.9127 51.8368 35.2642 51.7066 35.5715C51.5764 35.8762 51.3941 36.1327 51.1597 36.3411C50.9279 36.5494 50.6506 36.7083 50.3277 36.8176C50.0048 36.9244 49.6493 36.9778 49.2613 36.9778ZM56.0384 36.9778C55.6452 36.9778 55.2858 36.9244 54.9603 36.8176C54.6374 36.7083 54.36 36.5494 54.1283 36.3411C53.8965 36.1327 53.7168 35.8762 53.5892 35.5715C53.4616 35.2642 53.3978 34.9127 53.3978 34.5168V30.4504H54.6947V34.3879C54.6947 34.8593 54.804 35.2226 55.0228 35.4778C55.2415 35.733 55.5801 35.8606 56.0384 35.8606C56.4941 35.8606 56.8314 35.733 57.0501 35.4778C57.2715 35.2226 57.3822 34.8593 57.3822 34.3879V30.4504H58.679V34.5168C58.679 34.9127 58.6139 35.2642 58.4837 35.5715C58.3535 35.8762 58.1712 36.1327 57.9368 36.3411C57.7051 36.5494 57.4277 36.7083 57.1048 36.8176C56.7819 36.9244 56.4264 36.9778 56.0384 36.9778ZM62.464 34.0989H61.1827C61.1827 34.2447 61.1879 34.3801 61.1983 34.5051C61.2114 34.6275 61.2387 34.7382 61.2804 34.8372C61.3194 34.9648 61.378 35.0898 61.4562 35.2122C61.5369 35.3319 61.6371 35.4387 61.7569 35.5325C61.8767 35.6262 62.0147 35.7017 62.171 35.759C62.3299 35.8163 62.5069 35.845 62.7022 35.845C63.0147 35.845 63.27 35.7864 63.4679 35.6692C63.6684 35.552 63.8246 35.3944 63.9366 35.1965C64.0512 34.9986 64.1293 34.7694 64.171 34.509C64.2153 34.2486 64.2374 33.9739 64.2374 33.6848C64.2374 33.5181 64.227 33.3489 64.2062 33.177C64.1879 33.0025 64.1541 32.8359 64.1046 32.677C64.0577 32.5181 63.9926 32.3684 63.9093 32.2278C63.8259 32.0872 63.7205 31.9648 63.5929 31.8606C63.4653 31.7564 63.3116 31.6744 63.1319 31.6145C62.9549 31.5546 62.7478 31.5247 62.5108 31.5247C62.3572 31.5247 62.2088 31.539 62.0655 31.5676C61.9249 31.5937 61.7856 31.6379 61.6476 31.7004C61.5095 31.7629 61.3702 31.8437 61.2296 31.9426C61.0916 32.0416 60.9483 32.1627 60.7999 32.3059L59.8546 31.6028C60.0577 31.3997 60.2569 31.2213 60.4522 31.0676C60.6502 30.914 60.8546 30.7864 61.0655 30.6848C61.2791 30.5806 61.5056 30.5025 61.7452 30.4504C61.9848 30.3984 62.2504 30.3723 62.5421 30.3723C63.5108 30.3723 64.2491 30.6523 64.7569 31.2122C65.2647 31.7721 65.5187 32.5963 65.5187 33.6848C65.5187 34.2004 65.4549 34.6627 65.3272 35.0715C65.1996 35.4804 65.0147 35.828 64.7726 36.1145C64.5304 36.3984 64.2348 36.6158 63.8858 36.7668C63.5369 36.9179 63.1424 36.9934 62.7022 36.9934C62.3767 36.9934 62.0759 36.9491 61.7999 36.8606C61.5239 36.7721 61.2752 36.6471 61.0538 36.4856C60.8325 36.3215 60.6397 36.1249 60.4757 35.8958C60.3116 35.664 60.1788 35.4062 60.0772 35.1223C60.0408 35.0181 60.0121 34.884 59.9913 34.72C59.9705 34.5559 59.9549 34.3788 59.9444 34.1887C59.934 33.996 59.9262 33.8007 59.921 33.6028C59.9184 33.4023 59.9171 33.2161 59.9171 33.0442H62.464V34.0989ZM70.6552 36.9153V36.1809C70.4234 36.4674 70.1591 36.6744 69.8622 36.802C69.5679 36.9296 69.2619 36.9934 68.9442 36.9934C68.6005 36.9934 68.2893 36.9335 68.0106 36.8137C67.732 36.6939 67.4937 36.5273 67.2958 36.3137C67.1005 36.1002 66.9494 35.8463 66.8427 35.552C66.7385 35.2551 66.6864 34.9309 66.6864 34.5793V30.4504H67.9989V34.3879C67.9989 34.6405 68.0328 34.858 68.1005 35.0403C68.1682 35.22 68.2606 35.3684 68.3778 35.4856C68.495 35.6028 68.6317 35.6887 68.788 35.7434C68.9468 35.7981 69.1161 35.8254 69.2958 35.8254C69.4598 35.8254 69.6213 35.7864 69.7802 35.7083C69.939 35.6275 70.0809 35.5168 70.2059 35.3762C70.3309 35.233 70.4312 35.0637 70.5067 34.8684C70.5848 34.6731 70.6239 34.4596 70.6239 34.2278V30.4504H71.9325V36.9153H70.6552ZM70.5221 39.2668C70.5221 39.2043 70.5195 39.1536 70.5143 39.1145C70.5065 39.0754 70.4948 39.0455 70.4792 39.0247C70.4635 39.0064 70.444 38.9934 70.4206 38.9856C70.3945 38.9804 70.3633 38.9778 70.3268 38.9778H69.8503V37.845H70.4088C70.6562 37.845 70.8659 37.8619 71.0378 37.8958C71.2096 37.9322 71.3489 38.0012 71.4557 38.1028C71.5599 38.2043 71.6354 38.3463 71.6823 38.5286C71.7292 38.7135 71.7526 38.9543 71.7526 39.2512V40.4036H70.5221V39.2668ZM73.225 36.9153V30.4504H74.5375V34.2278C74.5375 34.4596 74.5753 34.6731 74.6508 34.8684C74.7289 35.0637 74.8305 35.233 74.9555 35.3762C75.0805 35.5168 75.2224 35.6275 75.3813 35.7083C75.5401 35.7864 75.7016 35.8254 75.8657 35.8254C76.0453 35.8254 76.2133 35.7981 76.3696 35.7434C76.5284 35.6887 76.6664 35.6028 76.7836 35.4856C76.9008 35.3684 76.9933 35.22 77.061 35.0403C77.1287 34.858 77.1625 34.6405 77.1625 34.3879V30.4504H78.4711V34.5793C78.4711 34.9309 78.4177 35.2551 78.311 35.552C78.2068 35.8463 78.0558 36.1002 77.8578 36.3137C77.6625 36.5273 77.4256 36.6939 77.1469 36.8137C76.8709 36.9335 76.561 36.9934 76.2172 36.9934C76.0558 36.9934 75.8969 36.9778 75.7407 36.9465C75.587 36.9153 75.4373 36.8671 75.2914 36.802C75.1482 36.7369 75.0102 36.6536 74.8774 36.552C74.7446 36.4478 74.6209 36.3241 74.5063 36.1809V36.9153H73.225ZM76.2756 27.6497C76.2756 27.8372 76.2964 27.983 76.3381 28.0872C76.3798 28.1913 76.4279 28.2434 76.4826 28.2434H79.5568V29.2512H76.3381C76.1949 29.2512 76.049 29.2317 75.9006 29.1926C75.7496 29.1536 75.6141 29.0767 75.4943 28.9622C75.3719 28.8476 75.2717 28.6861 75.1936 28.4778C75.1154 28.2668 75.0764 27.9908 75.0764 27.6497H76.2756ZM81.5058 31.7161C81.3626 31.828 81.2493 31.9895 81.166 32.2004C81.0853 32.4114 81.0449 32.6497 81.0449 32.9153V35.0754C81.0449 35.1874 81.0553 35.2864 81.0762 35.3723C81.097 35.4583 81.1308 35.5299 81.1777 35.5872C81.2272 35.6444 81.2923 35.6887 81.373 35.72C81.4564 35.7486 81.5605 35.7629 81.6855 35.7629H82.2598V36.9153H81.5723C81.2676 36.9153 81.0006 36.8723 80.7715 36.7864C80.5449 36.7004 80.3548 36.578 80.2012 36.4192C80.0501 36.2603 79.9368 36.0689 79.8613 35.845C79.7858 35.6184 79.748 35.3671 79.748 35.0911V32.7864C79.748 32.401 79.817 32.0533 79.9551 31.7434C80.0957 31.4309 80.2832 31.1653 80.5176 30.9465C80.6608 30.8189 80.8392 30.7083 81.0527 30.6145C81.2689 30.5181 81.5058 30.4374 81.7637 30.3723L82.6738 31.2981L83.5723 30.3723C83.8301 30.427 84.0683 30.5051 84.2871 30.6067C84.5084 30.7056 84.6907 30.8189 84.834 30.9465C85.084 31.1731 85.2741 31.4426 85.4043 31.7551C85.5371 32.065 85.6035 32.4088 85.6035 32.7864V36.9153H84.3223V32.9153C84.3223 32.7877 84.3118 32.664 84.291 32.5442C84.2702 32.4244 84.2389 32.3124 84.1973 32.2083C84.1582 32.1041 84.11 32.0103 84.0527 31.927C83.9954 31.8411 83.9316 31.7708 83.8613 31.7161L83.1543 32.4192C83.0918 32.4843 83.0189 32.5312 82.9355 32.5598C82.8522 32.5885 82.7676 32.6028 82.6816 32.6028C82.5983 32.6002 82.5163 32.5833 82.4355 32.552C82.3548 32.5208 82.2858 32.4765 82.2285 32.4192L81.5058 31.7161ZM80.1423 28.2434H85.4236V29.2512H80.1423V28.2434ZM87.0562 29.4114C87.0562 29.2629 87.0314 29.1236 86.982 28.9934C86.9351 28.8632 86.8609 28.7499 86.7593 28.6536C86.6604 28.5572 86.5341 28.4817 86.3804 28.427C86.2294 28.3697 86.0497 28.3411 85.8413 28.3411L86.064 27.3489H89.857V28.4192H88.0484C88.1083 28.4947 88.1564 28.578 88.1929 28.6692C88.232 28.7577 88.2619 28.8476 88.2827 28.9387C88.3036 29.0273 88.3179 29.1145 88.3257 29.2004C88.3335 29.2838 88.3374 29.3593 88.3374 29.427V35.22C88.3374 35.2955 88.34 35.3671 88.3452 35.4348C88.3505 35.4999 88.3648 35.5572 88.3882 35.6067C88.4143 35.6562 88.4533 35.6952 88.5054 35.7239C88.5575 35.7499 88.6291 35.7629 88.7202 35.7629H89.3452V36.9153H88.5913C88.3023 36.9153 88.0601 36.8736 87.8648 36.7903C87.6695 36.7069 87.5119 36.5911 87.3921 36.4426C87.2723 36.2942 87.1864 36.1171 87.1343 35.9114C87.0822 35.7056 87.0562 35.4804 87.0562 35.2356V29.4114ZM91.5482 36.9153H90.2669V32.8684C90.2669 32.4804 90.3333 32.1314 90.4661 31.8215C90.6015 31.509 90.7851 31.2447 91.0169 31.0286C91.1497 30.901 91.2995 30.7955 91.4661 30.7122C91.6354 30.6288 91.8099 30.5637 91.9896 30.5168C92.1719 30.4674 92.3568 30.4335 92.5443 30.4153C92.7318 30.3971 92.9114 30.3879 93.0833 30.3879C93.2552 30.3879 93.4349 30.3971 93.6224 30.4153C93.8099 30.4335 93.9935 30.4674 94.1732 30.5168C94.3554 30.5637 94.5299 30.6288 94.6966 30.7122C94.8633 30.7955 95.013 30.901 95.1458 31.0286C95.3802 31.2447 95.5638 31.509 95.6966 31.8215C95.832 32.1314 95.8997 32.4804 95.8997 32.8684V36.9153H94.6185V32.9778C94.6185 32.7252 94.5833 32.5077 94.513 32.3254C94.4427 32.1431 94.3411 31.9934 94.2083 31.8762C94.0781 31.7564 93.9179 31.6679 93.7278 31.6106C93.5377 31.5533 93.3229 31.5247 93.0833 31.5247C92.6094 31.5247 92.2383 31.6366 91.97 31.8606C91.7044 32.0819 91.5638 32.4283 91.5482 32.8997V33.1379C91.6888 33.1067 91.8646 33.0911 92.0755 33.0911H93.1458V34.1458H92.2044C92.0742 34.1458 91.9674 34.1601 91.8841 34.1887C91.8008 34.2174 91.7331 34.2603 91.681 34.3176C91.6315 34.3723 91.5963 34.4413 91.5755 34.5247C91.5573 34.608 91.5482 34.7056 91.5482 34.8176V36.9153ZM101.931 34.9778C101.931 35.2434 101.879 35.4973 101.775 35.7395C101.67 35.9817 101.513 36.1965 101.302 36.384C101.091 36.5689 100.825 36.7174 100.505 36.8293C100.187 36.9387 99.8149 36.9934 99.3878 36.9934C99.0883 36.9934 98.8175 36.9713 98.5753 36.927C98.3357 36.8853 98.1117 36.8202 97.9034 36.7317C97.6977 36.6405 97.5011 36.526 97.3136 36.3879C97.1287 36.2499 96.9399 36.0846 96.7472 35.8918L97.5479 35.0286C97.6886 35.1692 97.824 35.2916 97.9542 35.3958C98.0844 35.4999 98.2198 35.5872 98.3604 35.6575C98.5011 35.7252 98.6521 35.776 98.8136 35.8098C98.975 35.8437 99.156 35.8606 99.3565 35.8606C99.5961 35.8606 99.7966 35.8372 99.9581 35.7903C100.122 35.7434 100.254 35.6796 100.353 35.5989C100.454 35.5181 100.526 35.4244 100.567 35.3176C100.612 35.2109 100.634 35.0976 100.634 34.9778C100.634 34.8528 100.607 34.746 100.552 34.6575C100.5 34.5663 100.429 34.4895 100.341 34.427C100.255 34.3619 100.155 34.3085 100.04 34.2668C99.9281 34.2252 99.8123 34.19 99.6925 34.1614L99.1808 34.052C98.8552 33.9791 98.5636 33.8958 98.3058 33.802C98.0505 33.7056 97.8331 33.5885 97.6534 33.4504C97.4737 33.3124 97.3357 33.1484 97.2393 32.9583C97.1456 32.7655 97.0987 32.5377 97.0987 32.2747C97.0987 32.0142 97.1469 31.7694 97.2433 31.5403C97.3396 31.3111 97.4828 31.1119 97.6729 30.9426C97.863 30.7708 98.1 30.6353 98.3839 30.5364C98.6677 30.4374 98.9972 30.3879 99.3722 30.3879C99.5987 30.3879 99.8149 30.4075 100.021 30.4465C100.226 30.483 100.424 30.539 100.614 30.6145C100.807 30.69 100.996 30.7838 101.181 30.8958C101.366 31.0051 101.552 31.134 101.739 31.2825L100.876 32.0989C100.751 32.0025 100.629 31.9179 100.509 31.845C100.392 31.7721 100.272 31.7109 100.15 31.6614C100.03 31.6119 99.906 31.5741 99.7784 31.5481C99.6508 31.5221 99.5154 31.509 99.3722 31.509C99.1925 31.509 99.0388 31.5286 98.9112 31.5676C98.7836 31.6067 98.6794 31.6614 98.5987 31.7317C98.518 31.7994 98.4581 31.8801 98.419 31.9739C98.3826 32.0676 98.3643 32.1679 98.3643 32.2747C98.3643 32.358 98.3878 32.4322 98.4347 32.4973C98.4815 32.5598 98.5479 32.6171 98.6339 32.6692C98.7198 32.7187 98.8253 32.7655 98.9503 32.8098C99.0753 32.8515 99.2159 32.8918 99.3722 32.9309L99.962 33.0754C100.235 33.1379 100.491 33.2161 100.728 33.3098C100.967 33.4036 101.176 33.5247 101.353 33.6731C101.532 33.8189 101.673 33.9986 101.775 34.2122C101.879 34.4231 101.931 34.6783 101.931 34.9778ZM103.36 34.8684C103.457 35.1913 103.6 35.44 103.79 35.6145C103.983 35.789 104.208 35.8762 104.466 35.8762C104.64 35.8762 104.79 35.8515 104.915 35.802C105.043 35.7499 105.145 35.6783 105.224 35.5872C105.304 35.4934 105.363 35.3801 105.399 35.2473C105.438 35.1145 105.458 34.9661 105.458 34.802V31.5403H104.559V30.4504H106.755V34.8372C106.755 35.1809 106.704 35.4869 106.602 35.7551C106.501 36.0234 106.352 36.2499 106.157 36.4348C105.962 36.6171 105.722 36.7564 105.438 36.8528C105.154 36.9465 104.83 36.9934 104.466 36.9934C104.174 36.9934 103.91 36.9569 103.673 36.884C103.438 36.8111 103.229 36.7069 103.044 36.5715C102.859 36.4335 102.697 36.2668 102.559 36.0715C102.421 35.8762 102.304 35.6562 102.208 35.4114L103.36 34.8684ZM109.614 32.8176V36.9153H108.337V33.1067L107.712 32.2434C108.079 31.6288 108.518 31.1666 109.028 30.8567C109.541 30.5442 110.143 30.3879 110.833 30.3879C111.317 30.3879 111.74 30.4452 112.102 30.5598C112.464 30.6718 112.765 30.8372 113.005 31.0559C113.247 31.2721 113.428 31.539 113.548 31.8567C113.667 32.1744 113.727 32.5377 113.727 32.9465V36.9153H112.446V33.0442C112.446 32.7681 112.409 32.5338 112.337 32.3411C112.264 32.1484 112.158 31.9921 112.02 31.8723C111.882 31.7499 111.712 31.6614 111.508 31.6067C111.305 31.552 111.074 31.5247 110.813 31.5247C110.68 31.5247 110.544 31.5377 110.403 31.5637C110.265 31.5898 110.127 31.6301 109.989 31.6848C109.853 31.7395 109.719 31.8098 109.587 31.8958C109.456 31.9791 109.333 32.0793 109.215 32.1965L109.614 32.8176ZM114.45 31.5872C114.692 31.1991 114.998 30.9023 115.368 30.6965C115.74 30.4908 116.159 30.3879 116.625 30.3879C116.99 30.3879 117.31 30.4361 117.586 30.5325C117.862 30.6288 118.093 30.7694 118.278 30.9543C118.463 31.1392 118.602 31.3671 118.696 31.6379C118.789 31.9088 118.836 32.2174 118.836 32.5637V36.9153H117.555V32.595C117.555 32.4309 117.538 32.2838 117.504 32.1536C117.473 32.0208 117.421 31.9075 117.348 31.8137C117.275 31.72 117.179 31.6484 117.059 31.5989C116.942 31.5494 116.797 31.5247 116.625 31.5247C116.394 31.5247 116.181 31.5767 115.989 31.6809C115.799 31.7851 115.628 31.9452 115.477 32.1614L114.45 31.5872ZM124.867 34.9778C124.867 35.2434 124.815 35.4973 124.711 35.7395C124.607 35.9817 124.449 36.1965 124.238 36.384C124.028 36.5689 123.762 36.7174 123.442 36.8293C123.124 36.9387 122.751 36.9934 122.324 36.9934C122.025 36.9934 121.754 36.9713 121.512 36.927C121.272 36.8853 121.048 36.8202 120.84 36.7317C120.634 36.6405 120.438 36.526 120.25 36.3879C120.065 36.2499 119.876 36.0846 119.684 35.8918L120.485 35.0286C120.625 35.1692 120.761 35.2916 120.891 35.3958C121.021 35.4999 121.156 35.5872 121.297 35.6575C121.438 35.7252 121.589 35.776 121.75 35.8098C121.912 35.8437 122.093 35.8606 122.293 35.8606C122.533 35.8606 122.733 35.8372 122.895 35.7903C123.059 35.7434 123.19 35.6796 123.289 35.5989C123.391 35.5181 123.462 35.4244 123.504 35.3176C123.548 35.2109 123.571 35.0976 123.571 34.9778C123.571 34.8528 123.543 34.746 123.488 34.6575C123.436 34.5663 123.366 34.4895 123.278 34.427C123.192 34.3619 123.091 34.3085 122.977 34.2668C122.865 34.2252 122.749 34.19 122.629 34.1614L122.117 34.052C121.792 33.9791 121.5 33.8958 121.242 33.802C120.987 33.7056 120.77 33.5885 120.59 33.4504C120.41 33.3124 120.272 33.1484 120.176 32.9583C120.082 32.7655 120.035 32.5377 120.035 32.2747C120.035 32.0142 120.084 31.7694 120.18 31.5403C120.276 31.3111 120.419 31.1119 120.61 30.9426C120.8 30.7708 121.037 30.6353 121.321 30.5364C121.604 30.4374 121.934 30.3879 122.309 30.3879C122.535 30.3879 122.751 30.4075 122.957 30.4465C123.163 30.483 123.361 30.539 123.551 30.6145C123.744 30.69 123.932 30.7838 124.117 30.8958C124.302 31.0051 124.488 31.134 124.676 31.2825L123.813 32.0989C123.688 32.0025 123.565 31.9179 123.446 31.845C123.328 31.7721 123.209 31.7109 123.086 31.6614C122.966 31.6119 122.843 31.5741 122.715 31.5481C122.587 31.5221 122.452 31.509 122.309 31.509C122.129 31.509 121.975 31.5286 121.848 31.5676C121.72 31.6067 121.616 31.6614 121.535 31.7317C121.455 31.7994 121.395 31.8801 121.356 31.9739C121.319 32.0676 121.301 32.1679 121.301 32.2747C121.301 32.358 121.324 32.4322 121.371 32.4973C121.418 32.5598 121.485 32.6171 121.571 32.6692C121.656 32.7187 121.762 32.7655 121.887 32.8098C122.012 32.8515 122.153 32.8918 122.309 32.9309L122.899 33.0754C123.172 33.1379 123.427 33.2161 123.664 33.3098C123.904 33.4036 124.112 33.5247 124.289 33.6731C124.469 33.8189 124.61 33.9986 124.711 34.2122C124.815 34.4231 124.867 34.6783 124.867 34.9778ZM128.266 34.0989H126.984C126.984 34.2447 126.99 34.3801 127 34.5051C127.013 34.6275 127.04 34.7382 127.082 34.8372C127.121 34.9648 127.18 35.0898 127.258 35.2122C127.339 35.3319 127.439 35.4387 127.559 35.5325C127.678 35.6262 127.816 35.7017 127.973 35.759C128.131 35.8163 128.309 35.845 128.504 35.845C128.816 35.845 129.072 35.7864 129.27 35.6692C129.47 35.552 129.626 35.3944 129.738 35.1965C129.853 34.9986 129.931 34.7694 129.973 34.509C130.017 34.2486 130.039 33.9739 130.039 33.6848C130.039 33.5181 130.029 33.3489 130.008 33.177C129.99 33.0025 129.956 32.8359 129.906 32.677C129.859 32.5181 129.794 32.3684 129.711 32.2278C129.628 32.0872 129.522 31.9648 129.395 31.8606C129.267 31.7564 129.113 31.6744 128.934 31.6145C128.756 31.5546 128.549 31.5247 128.312 31.5247C128.159 31.5247 128.01 31.539 127.867 31.5676C127.727 31.5937 127.587 31.6379 127.449 31.7004C127.311 31.7629 127.172 31.8437 127.031 31.9426C126.893 32.0416 126.75 32.1627 126.602 32.3059L125.656 31.6028C125.859 31.3997 126.059 31.2213 126.254 31.0676C126.452 30.914 126.656 30.7864 126.867 30.6848C127.081 30.5806 127.307 30.5025 127.547 30.4504C127.786 30.3984 128.052 30.3723 128.344 30.3723C129.312 30.3723 130.051 30.6523 130.559 31.2122C131.066 31.7721 131.32 32.5963 131.32 33.6848C131.32 34.2004 131.256 34.6627 131.129 35.0715C131.001 35.4804 130.816 35.828 130.574 36.1145C130.332 36.3984 130.036 36.6158 129.687 36.7668C129.339 36.9179 128.944 36.9934 128.504 36.9934C128.178 36.9934 127.878 36.9491 127.602 36.8606C127.325 36.7721 127.077 36.6471 126.855 36.4856C126.634 36.3215 126.441 36.1249 126.277 35.8958C126.113 35.664 125.98 35.4062 125.879 35.1223C125.842 35.0181 125.814 34.884 125.793 34.72C125.772 34.5559 125.756 34.3788 125.746 34.1887C125.736 33.996 125.728 33.8007 125.723 33.6028C125.72 33.4023 125.719 33.2161 125.719 33.0442H128.266V34.0989ZM134.777 34.0989H133.496C133.496 34.2447 133.501 34.3801 133.511 34.5051C133.524 34.6275 133.552 34.7382 133.593 34.8372C133.633 34.9648 133.691 35.0898 133.769 35.2122C133.85 35.3319 133.95 35.4387 134.07 35.5325C134.19 35.6262 134.328 35.7017 134.484 35.759C134.643 35.8163 134.82 35.845 135.015 35.845C135.328 35.845 135.583 35.7864 135.781 35.6692C135.982 35.552 136.138 35.3944 136.25 35.1965C136.364 34.9986 136.442 34.7694 136.484 34.509C136.528 34.2486 136.551 33.9739 136.551 33.6848C136.551 33.5181 136.54 33.3489 136.519 33.177C136.501 33.0025 136.467 32.8359 136.418 32.677C136.371 32.5181 136.306 32.3684 136.222 32.2278C136.139 32.0872 136.034 31.9648 135.906 31.8606C135.778 31.7564 135.625 31.6744 135.445 31.6145C135.268 31.5546 135.061 31.5247 134.824 31.5247C134.67 31.5247 134.522 31.539 134.379 31.5676C134.238 31.5937 134.099 31.6379 133.961 31.7004C133.823 31.7629 133.683 31.8437 133.543 31.9426C133.405 32.0416 133.261 32.1627 133.113 32.3059L132.168 31.6028C132.371 31.3997 132.57 31.2213 132.765 31.0676C132.963 30.914 133.168 30.7864 133.379 30.6848C133.592 30.5806 133.819 30.5025 134.058 30.4504C134.298 30.3984 134.564 30.3723 134.855 30.3723C135.824 30.3723 136.562 30.6523 137.07 31.2122C137.578 31.7721 137.832 32.5963 137.832 33.6848C137.832 34.2004 137.768 34.6627 137.64 35.0715C137.513 35.4804 137.328 35.828 137.086 36.1145C136.843 36.3984 136.548 36.6158 136.199 36.7668C135.85 36.9179 135.455 36.9934 135.015 36.9934C134.69 36.9934 134.389 36.9491 134.113 36.8606C133.837 36.7721 133.588 36.6471 133.367 36.4856C133.146 36.3215 132.953 36.1249 132.789 35.8958C132.625 35.664 132.492 35.4062 132.39 35.1223C132.354 35.0181 132.325 34.884 132.304 34.72C132.284 34.5559 132.268 34.3788 132.258 34.1887C132.247 33.996 132.239 33.8007 132.234 33.6028C132.232 33.4023 132.23 33.2161 132.23 33.0442H134.777V34.0989ZM142.968 36.9153V36.1809C142.737 36.4674 142.472 36.6744 142.175 36.802C141.881 36.9296 141.575 36.9934 141.257 36.9934C140.914 36.9934 140.602 36.9335 140.324 36.8137C140.045 36.6939 139.807 36.5273 139.609 36.3137C139.414 36.1002 139.263 35.8463 139.156 35.552C139.052 35.2551 139 34.9309 139 34.5793V30.4504H140.312V34.3879C140.312 34.6405 140.346 34.858 140.414 35.0403C140.481 35.22 140.574 35.3684 140.691 35.4856C140.808 35.6028 140.945 35.6887 141.101 35.7434C141.26 35.7981 141.429 35.8254 141.609 35.8254C141.773 35.8254 141.934 35.7864 142.093 35.7083C142.252 35.6275 142.394 35.5168 142.519 35.3762C142.644 35.233 142.744 35.0637 142.82 34.8684C142.898 34.6731 142.937 34.4596 142.937 34.2278V30.4504H144.246V36.9153H142.968ZM147.363 35.2356C147.363 35.3111 147.365 35.3814 147.37 35.4465C147.376 35.5116 147.39 35.5676 147.413 35.6145C147.439 35.6614 147.478 35.6978 147.531 35.7239C147.583 35.7499 147.654 35.7629 147.745 35.7629H148.37V36.9153H147.617C147.327 36.9153 147.085 36.8736 146.89 36.7903C146.695 36.7043 146.537 36.5859 146.417 36.4348C146.297 36.2838 146.212 36.1054 146.159 35.8997C146.107 35.6913 146.081 35.4648 146.081 35.22V29.427C146.081 29.3593 146.085 29.2838 146.093 29.2004C146.101 29.1145 146.115 29.0273 146.136 28.9387C146.157 28.8476 146.186 28.7577 146.222 28.6692C146.261 28.578 146.311 28.4947 146.37 28.4192H144.562V27.3489H148.355L148.577 28.3411C148.369 28.3411 148.188 28.3697 148.034 28.427C147.883 28.4817 147.757 28.5572 147.656 28.6536C147.557 28.7499 147.482 28.8632 147.433 28.9934C147.386 29.1236 147.363 29.2629 147.363 29.4114V35.2356ZM151.097 36.9934C150.787 36.9934 150.494 36.953 150.218 36.8723C149.942 36.7916 149.698 36.6705 149.487 36.509C149.279 36.345 149.114 36.1392 148.991 35.8918C148.869 35.6418 148.808 35.3489 148.808 35.0129C148.808 34.7447 148.856 34.496 148.952 34.2668C149.049 34.0351 149.192 33.8346 149.382 33.6653C149.575 33.496 149.813 33.3632 150.097 33.2668C150.383 33.1705 150.717 33.1223 151.097 33.1223H152.823V32.7083C152.823 32.5051 152.796 32.328 152.741 32.177C152.689 32.0234 152.605 31.8958 152.487 31.7942C152.373 31.6926 152.224 31.6171 152.042 31.5676C151.86 31.5155 151.64 31.4895 151.382 31.4895C151.205 31.4895 151.045 31.5038 150.901 31.5325C150.761 31.5611 150.631 31.6015 150.511 31.6536C150.394 31.7056 150.284 31.7681 150.183 31.8411C150.084 31.914 149.987 31.9947 149.894 32.0833L149.062 31.3137C149.226 31.1471 149.395 31.0051 149.569 30.8879C149.746 30.7681 149.931 30.6718 150.124 30.5989C150.319 30.526 150.525 30.4726 150.741 30.4387C150.957 30.4049 151.188 30.3879 151.433 30.3879C152.336 30.3879 153.012 30.5741 153.46 30.9465C153.911 31.3163 154.136 31.8658 154.136 32.595V36.9153H152.823V34.0989H151.273C150.885 34.0989 150.59 34.1744 150.39 34.3254C150.189 34.4739 150.089 34.6965 150.089 34.9934C150.089 35.2825 150.187 35.5077 150.382 35.6692C150.58 35.828 150.887 35.9075 151.304 35.9075V36.9934H151.097ZM159.597 36.9153V36.1809C159.365 36.4674 159.1 36.6744 158.804 36.802C158.509 36.9296 158.203 36.9934 157.886 36.9934C157.542 36.9934 157.231 36.9335 156.952 36.8137C156.673 36.6939 156.435 36.5273 156.237 36.3137C156.042 36.1002 155.891 35.8463 155.784 35.552C155.68 35.2551 155.628 34.9309 155.628 34.5793V30.4504H156.94V34.3879C156.94 34.6405 156.974 34.858 157.042 35.0403C157.11 35.22 157.202 35.3684 157.319 35.4856C157.436 35.6028 157.573 35.6887 157.729 35.7434C157.888 35.7981 158.057 35.8254 158.237 35.8254C158.401 35.8254 158.563 35.7864 158.722 35.7083C158.88 35.6275 159.022 35.5168 159.147 35.3762C159.272 35.233 159.373 35.0637 159.448 34.8684C159.526 34.6731 159.565 34.4596 159.565 34.2278V30.4504H160.874V36.9153H159.597ZM158.296 29.1536C158.296 28.9192 158.314 28.7161 158.35 28.5442C158.384 28.3723 158.431 28.2252 158.491 28.1028C158.551 27.9804 158.622 27.8814 158.706 27.8059C158.786 27.7278 158.872 27.6666 158.964 27.6223C159.055 27.578 159.15 27.5481 159.249 27.5325C159.348 27.5168 159.445 27.509 159.542 27.509H161.413V28.5793H159.624C159.543 28.5793 159.486 28.6288 159.452 28.7278C159.415 28.8267 159.397 28.9687 159.397 29.1536H158.296Z" fill="#404040"/>
    </svg>
    